<svg width="177" height="48" viewBox="0 0 177 48" fill="none" xmlns="http://www.w3.org/2000/svg">
<rect width="175" height="48" fill="white"/>
<path fill-rule="evenodd" clip-rule="evenodd" d="M172 4.57143H47.9999V43.4286H172V4.57143ZM43.4285 0V48H176.571V0H43.4285Z" fill="#3340CF"/>
<path fill-rule="evenodd" clip-rule="evenodd" d="M48 0H0V48H48V0ZM28.5714 26.3594C31.9582 24.6763 34.2857 21.1813 34.2857 17.1428C34.2857 11.4622 29.6806 6.8571 24 6.8571C18.3193 6.8571 13.7143 11.4622 13.7143 17.1428C13.7143 21.1813 16.0418 24.6763 19.4286 26.3594V41.1428H28.5714V26.3594ZM27.4286 17.1428C27.4286 19.0364 25.8935 20.5714 24 20.5714C22.1064 20.5714 20.5714 19.0364 20.5714 17.1428C20.5714 15.2493 22.1064 13.7142 24 13.7142C25.8935 13.7142 27.4286 15.2493 27.4286 17.1428Z" fill="#3340CF"/>
<path d="M65.4322 35.0806C61.4288 35.0806 57.8031 34.0654 54.8572 32.1101L57.7653 27.2596C60.258 28.8012 63.0528 29.5532 65.3944 29.5532C66.2253 29.5532 66.6408 29.3652 66.6408 28.8764V28.8012C66.6408 28.3876 66.2631 28.1244 64.1859 27.598C58.9739 26.3195 55.7636 24.9283 55.7636 20.6793V20.6041C55.7636 16.0919 59.3893 13.5727 64.7524 13.5727C68.1515 13.5727 71.5128 14.4375 74.0055 15.9415L71.2862 21.0177C69.0957 19.8145 66.4519 19.1001 64.7146 19.1001C63.8837 19.1001 63.506 19.3257 63.506 19.7393V19.8145C63.506 20.2281 63.9593 20.4913 66.0365 21.0177C71.2485 22.2962 74.3832 23.725 74.3832 27.9364V28.0116C74.3832 32.4861 71.0219 35.0806 65.4322 35.0806Z" fill="#3340CF"/>
<path d="M86.7103 35.0806C79.9499 35.0806 75.1533 30.1925 75.1533 24.4018V24.3266C75.1533 18.536 79.9876 13.5727 86.7858 13.5727C93.5463 13.5727 98.3428 18.4608 98.3428 24.2514V24.3266C98.3428 30.1173 93.5085 35.0806 86.7103 35.0806ZM86.7858 27.974C88.712 27.974 90.1094 26.3571 90.1094 24.4018V24.3266C90.1094 22.2962 88.5987 20.6793 86.7103 20.6793C84.7841 20.6793 83.3867 22.2962 83.3867 24.2514V24.3266C83.3867 26.3571 84.8974 27.974 86.7858 27.974Z" fill="#3340CF"/>
<path d="M105.978 41.4285C102.994 41.4285 100.313 40.5637 98.0091 39.2853L100.502 33.457C102.05 34.3219 103.479 34.4495 104.272 34.4495C104.763 34.4495 105.274 34.3071 105.676 33.8022L97.5937 14.0615H106.469L110.057 24.8907L113.343 14.0615H122.067L114.929 33.163C112.927 38.54 110.737 41.4285 105.978 41.4285Z" fill="#3340CF"/>
<path d="M130.753 12.595V7.14282H139.629V12.595H130.753ZM130.904 34.5918V14.0615H139.477V34.5918H130.904Z" fill="#3340CF"/>
<path d="M153.51 35.0806C146.75 35.0806 141.953 30.1925 141.953 24.4018V24.3266C141.953 18.536 146.788 13.5727 153.586 13.5727C160.346 13.5727 165.143 18.4608 165.143 24.2514V24.3266C165.143 30.1173 160.309 35.0806 153.51 35.0806ZM153.586 27.974C155.512 27.974 156.909 26.3571 156.909 24.4018V24.3266C156.909 22.2962 155.399 20.6793 153.51 20.6793C151.584 20.6793 150.187 22.2962 150.187 24.2514V24.3266C150.187 26.3571 151.697 27.974 153.586 27.974Z" fill="#3340CF"/>
</svg>
